# xmcd CD database file
#
# Track frame offsets:
#	150
#	18262
#	41302
#	64922
#	93962
#	120512
#	142965
#	171547
#	199927
#	224395
#
# Disc length: 3227 seconds
#
# Revision: 0
# Processed by: cddbd v1.5.2PL0 Copyright (c) Steve Scherf et al.
# Submitted via: CDex 1.51
#
DISCID=8a0c990a
DTITLE=Magnus Lindgren and Mats Algotsson's Trio - Unexpected Call From The Duke
DYEAR=1900
DGENRE=Jazz
TTITLE0=Take The "A" Train
TTITLE1=In a sentimental mood
TTITLE2=Perdido
TTITLE3=Stompin at the shuffle (to Duke)
TTITLE4=Come sunday
TTITLE5=Rockin' in rhythm
TTITLE6=C jam blues
TTITLE7=Prelude to a kiss
TTITLE8=Cotton tail
TTITLE9=I let a song go out of my heart
EXTD=
EXTT0=
EXTT1=
EXTT2=
EXTT3=
EXTT4=
EXTT5=
EXTT6=
EXTT7=
EXTT8=
EXTT9=
PLAYORDER=
